# xmcd
#
# Track frame offsets: 
#        150
#        16505
#        36410
#        55082
#        75985
#        93587
#        115962
#        143187
#        163527
#        183582
#        204162
#        223405
#
# Disc length: 3345 seconds
#
# Revision: 25
# Processed by: cddbd v1.5.1PL0 Copyright (c) Steve Scherf et al.
# Submitted via: ExactAudioCopy v0.95b2
#
DISCID=9e0d0f0c
DTITLE=Lifehouse - No Name Face
DYEAR=2000
DGENRE=Pop
TTITLE0=Hanging By A Moment
TTITLE1=Sick Cycle Carousel
TTITLE2=Unknown
TTITLE3=Somebody Else's Song
TTITLE4=Trying
TTITLE5=Only One
TTITLE6=Simon
TTITLE7=Cling And Clatter
TTITLE8=Breathing
TTITLE9=Quasimodo
TTITLE10=Somewhere In Between
TTITLE11=Everything
EXTD=YEAR: 2000
EXTT0=
EXTT1=
EXTT2=
EXTT3=
EXTT4=
EXTT5=
EXTT6=
EXTT7=
EXTT8=
EXTT9=
EXTT10=
EXTT11=
PLAYORDER=
